#!OML:ASF E:\motion texture\Top Level 1\Subject 1\Session 1\male.ASF
:FULLY-SPECIFIED
:DEGREES
269
root -7.3362 17.8258 4.66179 343.377 -86.1857 -335.521
lowerback -2.30826 -0.936553 -1.21405
upperback -3.59004 -1.27048 2.73409
thorax -2.30789 -0.600398 3.49358
lowerneck -15.7438 -1.75984 -1.80851
upperneck 19.7424 -4.31226 9.01815
head 9.04881 -1.29909 2.83365
rclavicle 6.11573e-015 -1.82882e-014
rhumerus 35.2293 17.4567 -39.5496
rradius 68.1216
rwrist 21.089
rhand -29.3298 -15.4332
rfingers 7.12502
rthumb -2.67024 -405.396
lclavicle 6.11573e-015 -1.82882e-014
lhumerus 20.6058 -70.1804 28.7884
lradius 90.5893
lwrist -53.0004
lhand -41.7227 11.6028
lfingers 7.12502
lthumb -14.628 41.0669
rfemur -33.2356 -0.818881 13.5016
rtibia 9.6079
rfoot -7.75499 -21.0445
rtoes -2.17936
lfemur 0.499844 -4.59241 -25.0639
ltibia 16.9327
lfoot -15.7775 -0.875325
ltoes -8.74991
270
root -7.4843 17.8106 4.64986 343.532 -85.9697 -335.573
lowerback -2.25858 -0.941508 -1.26355
upperback -3.57382 -1.27598 2.68257
thorax -2.31868 -0.601846 3.4688
lowerneck -15.7339 -1.94606 -2.03267
upperneck 19.5309 -4.5187 9.14237
head 8.99488 -1.40341 2.88507
rclavicle 1.31244e-014 3.97569e-015
rhumerus 33.9712 14.1417 -42.2206
rradius 66.4429
rwrist 19.1272
rhand -27.6132 -17.8242
rfingers 7.12502
rthumb -1.01237 -407.802
lclavicle 1.31244e-014 3.97569e-015
lhumerus 13.3033 -68.7029 36.4474
lradius 90.5811
lwrist -51.5503
lhand -41.5868 11.962
lfingers 7.12502
lthumb -14.4971 41.4356
rfemur -33.5332 -0.961938 13.5688
rtibia 9.83097
rfoot -8.02878 -20.8439
rtoes -2.43979
lfemur 0.787551 -4.64517 -25.0578
ltibia 17.1514
lfoot -15.8636 -1.12609
ltoes -9.46365
271
root -7.63416 17.7959 4.63854 343.462 -85.7495 -335.428
lowerback -2.17975 -0.928609 -1.30784
upperback -3.55426 -1.25764 2.61324
thorax -2.34449 -0.591358 3.42329
lowerneck -15.7101 -2.15685 -2.26659
upperneck 19.2981 -4.76081 9.2919
head 8.93544 -1.52357 2.94204
rclavicle -3.04311e-015 8.74653e-015
rhumerus 32.8558 10.6784 -44.7623
rradius 64.8244
rwrist 17.0189
rhand -26.0763 -20.4654
rfingers 7.12502
rthumb 0.472023 -410.445
lclavicle -3.04311e-015 8.74653e-015
lhumerus 6.6024 -66.5386 43.6013
lradius 90.4379
lwrist -50.3835
lhand -41.2584 12.2333
lfingers 7.12502
lthumb -14.1807 41.7293
rfemur -33.8848 -1.35316 13.7662
rtibia 10.4944
rfoot -8.04368 -20.3907
rtoes -2.26231
lfemur 1.08849 -4.71372 -25.0816
ltibia 17.4126
lfoot -15.9317 -1.34869
ltoes -10.2528
272
root -7.78652 17.7818 4.62756 343.258 -85.515 -335.18
lowerback -2.07921 -0.902251 -1.35075
upperback -3.52842 -1.2214 2.52697
thorax -2.37753 -0.571931 3.35982
lowerneck -15.6667 -2.38727 -2.49019
upperneck 19.0398 -5.03223 9.44949
head 8.86704 -1.65719 2.99602
rclavicle 4.9075e-015 5.56597e-015
rhumerus 31.8778 7.07427 -47.1874
rradius 63.2433
rwrist 14.821
rhand -24.8021 -23.2729
rfingers 7.12502
rthumb 1.70273 -413.246
lclavicle 4.9075e-015 5.56597e-015
lhumerus 0.82998 -63.7634 49.9103
lradius 90.1919
lwrist -49.4105
lhand -40.6103 12.4966
lfingers 7.12502
lthumb -13.5561 42.0353
rfemur -34.2267 -1.8475 14.0156
rtibia 11.4566
rfoot -7.86759 -19.8194
rtoes -1.77927
lfemur 1.41665 -4.79752 -25.1303
ltibia 17.7003
lfoot -15.9756 -1.55422
ltoes -11.098
273
root -7.94211 17.7683 4.61674 342.968 -85.2483 -334.874
lowerback -1.96154 -0.869275 -1.40351
upperback -3.49779 -1.17643 2.42606
thorax -2.41588 -0.547908 3.28694
lowerneck -15.6127 -2.63401 -2.68849
upperneck 18.7725 -5.32947 9.59678
head 8.79594 -1.80291 3.03889
rclavicle -5.42931e-015 2.54444e-014
rhumerus 31.0318 3.32733 -49.5114
rradius 61.7106
rwrist 12.509
rhand -23.7251 -26.141
rfingers 7.12502
rthumb 2.74289 -416.103
lclavicle -5.42931e-015 2.54444e-014
lhumerus -3.95838 -60.443 55.3114
lradius 89.8438
lwrist -48.6365
lhand -39.8016 12.6629
lfingers 7.12502
lthumb -12.7765 42.2519
rfemur -34.4978 -2.34117 14.2434
rtibia 12.5729
rfoot -7.59957 -19.242
rtoes -1.15241
lfemur 1.77655 -4.90493 -25.2069
ltibia 18.0075
lfoot -15.992 -1.75642
ltoes -11.9919
274
root -8.10202 17.7557 4.60577 342.743 -84.9406 -334.662
lowerback -1.84153 -0.834762 -1.46683
upperback -3.46229 -1.12964 2.31655
thorax -2.45058 -0.522849 3.21099
lowerneck -15.5194 -2.88705 -2.87373
upperneck 18.4754 -5.63834 9.75449
head 8.70983 -1.95439 3.08157
rclavicle 9.85848e-015 -3.57812e-014
rhumerus 30.3089 -0.554874 -51.7458
rradius 60.1961
rwrist 10.258
rhand -23.0391 -29.0037
rfingers 7.12502
rthumb 3.40537 -418.956
lclavicle 9.85848e-015 -3.57812e-014
lhumerus -7.83498 -56.674 59.862
lradius 89.4166
lwrist -48.0276
lhand -38.8096 12.8434
lfingers 7.12502
lthumb -11.8201 42.4899
rfemur -34.6508 -2.78077 14.4223
rtibia 13.7395
rfoot -7.37672 -18.7176
rtoes -0.519963
lfemur 2.17142 -5.0337 -25.295
ltibia 18.3321
lfoot -15.9817 -1.9735
ltoes -12.9178
275
root -8.26637 17.7436 4.59432 342.791 -84.5847 -334.74
lowerback -1.72959 -0.804101 -1.53269
upperback -3.42939 -1.08837 2.20656
thorax -2.48297 -0.500585 3.13578
lowerneck -15.3982 -3.14617 -3.04521
upperneck 18.1638 -5.9581 9.91378
head 8.61569 -2.11157 3.12133
rclavicle 3.95706e-015 -3.97569e-015
rhumerus 29.7139 -4.58325 -53.9148
rradius 58.7049
rwrist 8.09138
rhand -22.6663 -31.6648
rfingers 7.12502
rthumb 3.76537 -421.611
lclavicle 3.95706e-015 -3.97569e-015
lhumerus -10.9479 -52.5361 63.6905
lradius 88.9355
lwrist -47.5112
lhand -37.7063 13.029
lfingers 7.12502
lthumb -10.756 42.7336
rfemur -34.6646 -3.12863 14.5391
rtibia 14.8416
rfoot -7.18958 -18.3026
rtoes 0.032869
lfemur 2.59044 -5.19437 -25.3703
ltibia 18.6619
lfoot -15.9315 -2.21273
ltoes -13.8265
276
root -8.43525 17.7324 4.58211 343.322 -84.1854 -335.309
lowerback -1.64311 -0.779191 -1.58127
upperback -3.39622 -1.055 2.10855
thorax -2.50029 -0.482918 3.06272
lowerneck -15.2454 -3.40867 -3.22199
upperneck 17.8394 -6.28393 10.0896
head 8.51424 -2.27225 3.16724
rclavicle 1.02685e-014 1.35174e-014
rhumerus 29.2523 -8.74881 -56.0192
rradius 57.2234
rwrist 6.11201
rhand -22.5687 -33.9903
rfingers 7.12502
rthumb 3.8596 -423.935
lclavicle 1.02685e-014 1.35174e-014
lhumerus -13.4268 -48.1018 66.9246
lradius 88.4153
lwrist -46.9865
lhand -36.5423 13.272
lfingers 7.12502
lthumb -9.63308 43.0317
rfemur -34.541 -3.36613 14.6048
rtibia 15.7948
rfoot -6.90185 -18.0701
rtoes 0.610642
lfemur 3.01113 -5.38837 -25.3944
ltibia 19.0189
lfoot -15.844 -2.48169
ltoes -14.7569
277
root -8.6078 17.7221 4.56892 344.6 -83.7569 -336.617
lowerback -1.58818 -0.761506 -1.57178
upperback -3.37371 -1.0314 2.03654
thorax -2.51065 -0.471602 2.98346
lowerneck -15.0776 -3.67566 -3.41085
upperneck 17.5236 -6.61669 10.2761
head 8.41596 -2.43687 3.21858
rclavicle -5.3237e-015 -7.95139e-016
rhumerus 28.93 -13.0403 -58.0789
rradius 55.755
rwrist 4.44829
rhand -22.6456 -35.917
rfingers 7.12502
rthumb 3.78537 -425.863
lclavicle -5.3237e-015 -7.95139e-016
lhumerus -15.415 -43.4492 69.6894
lradius 87.8718
lwrist -46.3282
lhand -35.3776 13.6621
lfingers 7.12502
lthumb -8.5092 43.4706
rfemur -34.3149 -3.45843 14.6489
rtibia 16.5399
rfoot -6.35982 -18.1329
rtoes 1.3343
lfemur 3.40983 -5.64405 -25.3203
ltibia 19.3943
lfoot -15.7026 -2.76202
ltoes -15.7157
